<svg height="512" viewBox="0 0 60 60" width="512" xmlns="http://www.w3.org/2000/svg"><g id="Page-1" fill="none" fill-rule="evenodd"><g id="023---Shed" fill="rgb(0,0,0)" fill-rule="nonzero" transform="translate(0 -1)"><path id="Shape" d="m12 59h-4c-.55228475 0-1 .4477153-1 1s.44771525 1 1 1h44c.5522847 0 1-.4477153 1-1s-.4477153-1-1-1h-4v-25c1.2131877-.000259 2.3068022-.7311825 2.7710339-1.8520363.4642318-1.1208539.2076898-2.4109809-.6500339-3.2689637l-18-18c-.3160712-.3100533-.6998127-.542489-1.121-.679v-4.2h2v1c-.0006749.69461051.3591006 1.33982838.9503634 1.70437252.5912629.36454414 1.3293295.39620268 1.9496366.08362748l4.089-2.049c.0304049-.01470581.0598026-.03140902.088-.05.5775061-.36699226.9273137-1.00375104.9273137-1.688s-.3498076-1.32100774-.9273137-1.688c-.0281974-.01859098-.0575951-.03529419-.088-.05l-4.089-2.051c-.6203071-.3125752-1.3583737-.28091666-1.9496366.08362748-.5912628.36454414-.9510383 1.00976201-.9503634 1.70437252v1h-2v-2c0-.55228475-.4477153-1-1-1s-1 .44771525-1 1v2h-1.465l-1.406-2.109c-.37082-.55652011-.9952533-.89087713-1.664-.891h-4.465c-1.1045695 0-2 .8954305-2 2v4c0 1.1045695.8954305 2 2 2h4.465c.6687467-.00012287 1.29318-.33447989 1.664-.891l1.406-2.109h1.465v4.2c-.4213503.1351555-.8052437.3669984-1.121.677l-18 18c-.8685524.8500487-1.13181676 2.1433771-.66467331 3.2653142.46714344 1.1219372 1.57049531 1.8462446 2.78567331 1.8286858zm26.989-54-3.989 2v-4zm-14.524 2h-4.465v-4h4.465l1.335 2zm.778 15h9.514l3 3h-15.515zm2-2 2.757-2.757 2.757 2.757zm-7 7h19.515l3 3h-25.516zm1.757 23h-8v-3h8zm0-5h-8v-3h8zm-8 7h8v3h-8zm8-14v2h-8v-3h8.184c-.1184378.320257-.1806856.6585603-.184 1zm-8 19h8v2h-8zm10 2v-21c0-.5522847.4477153-1 1-1h10c.5522847 0 1 .4477153 1 1v21zm14-12h8v3h-8zm0-2v-3h8v3zm0 7h8v3h-8zm8-12h-8v-2c-.0033144-.3414397-.0655622-.679743-.184-1h8.184zm-8 19v-2h8v2zm8-24h-32v-1.781c.039-.035.084-.061.121-.1l1.121-1.119h29.516l1.12 1.121c.038.037.083.064.122.1zm-35-4c-.0007185-.2653486.1047939-.5199469.293-.707l18-18c.3958895-.3771429 1.0181105-.3771429 1.414 0l18 18c.187777.1875683.2932867.4420908.2932867.7075s-.1055097.5199317-.2932867.7075c-.3958895.3771429-1.0181105.3771429-1.414 0l-1.388-1.388-.044-.044-4.956-4.956-.044-.044-10.154-10.154c-.3904999-.3903819-1.0235001-.3903819-1.414 0l-10.154 10.153-.044.044-4.956 4.956-.044.044-1.388 1.389c-.3958895.3771429-1.0181105.3771429-1.414 0-.1884532-.187297-.2939862-.4423051-.293-.708z"/><path id="Shape" d="m32.707 47.879c-.3903819.3904999-.3903819 1.0235001 0 1.414s.3903819 1.0235001 0 1.414c-.395481.3781625-1.018519.3781625-1.414 0-.3903819-.3904999-.3903819-1.0235001 0-1.414.3907414-.3904653.3909653-1.0237585.0005-1.4145-.3904653-.3907414-1.0237585-.3909653-1.4145-.0005-.8581818.8579227-1.1150152 2.1483473-.6507253 3.2694817s1.5582561 1.8521589 2.7717253 1.8521589 2.3074354-.7310245 2.7717253-1.8521589.2074565-2.411559-.6507253-3.2694817c-.3907759-.3901059-1.0237763-.3896582-1.414.001z"/><path id="Shape" d="m1 61h3c.55228475 0 1-.4477153 1-1s-.44771525-1-1-1h-3c-.55228475 0-1 .4477153-1 1s.44771525 1 1 1z"/><path id="Shape" d="m59 59h-3c-.5522847 0-1 .4477153-1 1s.4477153 1 1 1h3c.5522847 0 1-.4477153 1-1s-.4477153-1-1-1z"/></g></g></svg>