<svg height="512" viewBox="0 0 61 59" width="512" xmlns="http://www.w3.org/2000/svg"><g id="Page-1" fill="none" fill-rule="evenodd"><g id="035---Potted-Plants" fill="rgb(0,0,0)" fill-rule="nonzero"><path id="Shape" d="m32.1 50.132c-.2329726-.1270046-.50687-.1562108-.7613852-.0811879-.2545151.0750229-.468779.2481234-.5956148.4811879-1.1011818 2.1654336-2.4071391 4.2204745-3.9 6.137-.1919037.2132331-.4661418.3337813-.753.331h-18.16c-.28585101.0027162-.55919822-.1170324-.751-.329-4.0460049-4.8395731-5.82732041-11.1793674-4.894-17.418.75576558-4.2187777 4.43915149-7.2807373 8.725-7.253.5522847 0 1-.4477153 1-1v-3h10v3c.0098307.5559632.4639512 1.0011793 1.02 1 2.3081344-.0135972 4.5272876.8895298 6.17 2.511.398916.3433149.9956641.318665 1.3649068-.0563801s.3845858-.972105.0350932-1.3656199c-1.7738769-1.7548824-4.1068307-2.8323652-6.593-3.045v-2.044h.5c1.9329966-.0000001 3.4999999-1.5670034 3.4999999-3.5s-1.5670033-3.4999999-3.4999999-3.5h-1.756c.1579188-6.0753387 1.8678192-12.00921293 4.967-17.237.481646-.78562115.2921655-1.80812527-.439-2.369-.7080627-.56885383-1.7306679-.51414833-2.374.127-3.5914801 3.43992019-6.3579085 7.64802294-8.092 12.309-1.4418853-3.148561-3.4793249-5.98841231-6-8.363-.5996778-.57478937-1.5321481-.61710806-2.18142529-.09900053-.6492772.51810753-.81494957 1.43671757-.38757471 2.14900053 2.4532394 4.0823518 3.824795 8.722925 3.985 13.483h-2.722c-1.25042959 0-2.40587419.6670962-3.031089 1.75s-.62521481 2.4170962 0 3.5 1.78065941 1.75 3.031089 1.75h.5v2.043c-4.86367064.4207979-8.83860626 4.0553294-9.692 8.862-1.02906154 6.8193963.91110839 13.7530467 5.33 19.048.572287.6658548 1.40700609 1.0483279 2.285 1.047h18.16c.8798867.0008232 1.716139-.3831441 2.289-1.051 1.5789312-2.0148836 2.9584089-4.1783761 4.119-6.46.2647987-.4846322.0866128-1.0921657-.398-1.357zm-6.795-46.172c-2.8371861 5.24189667-4.3923093 11.0813189-4.538 17.04h-1.955c-.1523123-1.4148641-.4423539-2.8114848-.866-4.17 1.3544718-4.8310803 3.8824953-9.25228725 7.359-12.87zm-14.088 4.828c3.0151854 3.4360901 4.9535649 7.682859 5.574 12.212h-2.553c-.1318136-4.2385353-1.1614885-8.400862-3.021-12.212zm-3.21 15.712c0-.8284271.67157288-1.5 1.5-1.5h15c.8284271 0 1.5.6715729 1.5 1.5s-.6715729 1.5-1.5 1.5h-15c-.82842712 0-1.5-.6715729-1.5-1.5z"/><path id="Shape" d="m10.987 34c-3.30899358-.0197784-6.15270625 2.3433009-6.739 5.6-.04648848.2615454.01299879.53084.16533609.7484647.1523373.2176248.3850044.3656935.64666391.4115353.05746576.0099556.11567825.0149739.174.015.48519404-.0004473.9000616-.3491216.984-.827.41854273-2.3003487 2.43095666-3.9663186 4.769-3.948.5522847 0 1-.4477153 1-1s-.4477153-1-1-1z"/><path id="Shape" d="m59.911 9.157c.4432145-1.63757199-.0763656-3.38503002-1.3422926-4.51441475s-3.0611097-1.44702021-4.6377074-.82058525c-.3273008-2.19476247-2.2119669-3.81921335-4.431-3.81921335s-4.1036992 1.62445088-4.431 3.81921335c-2.0666017-.82185561-4.423256-.00319981-5.5352884 1.92285138s-.6427321 4.37631112 1.1022884 5.75514862c-1.3247091 1.0557691-1.9422898 2.7673411-1.5969175 4.42572s1.5948748 2.9811141 3.2309175 3.42028c.3831755.1030795.7782021.1555256 1.175.156.4652594-.0033273.9271498-.0792406 1.369-.225-.282 2.526-.495 6.045-.632 9.52-1.2947302-1.695824-3.0918019-2.9396005-5.135-3.554-3.157-.808-6.365.584-7.995 1.486-.4874014.2799391-.8416514.7442336-.9829259 1.2882625-.1412744.5440289-.0576875 1.1220218.2319259 1.6037375.985 1.571 3.111 4.328 6.272 5.136.6505023.1642173 1.3190959.2458596 1.99.243 1.9119685-.0589494 3.7851001-.5545972 5.476-1.449-.017.865-.029 1.687-.034 2.449h-11.24c-1.5899328.0692675-2.8253689 1.4097044-2.765 3v1c-.0377239 1.387813.8982827 2.6137441 2.247 2.943l4.579 14.657c.2593879.8355762 1.0340967 1.4037231 1.909 1.4h12.53c.8747975.0033975 1.6493335-.5646225 1.909-1.4l4.579-14.654c1.3498437-.3294897 2.2861601-1.5570767 2.247-2.946v-1c.0603689-1.5902956-1.1750672-2.9307325-2.765-3h-11.23c0-.752.017-1.562.034-2.409 1.6700478.8707473 3.5154324 1.3524344 5.398 1.409.671233.0028481 1.3401559-.0787935 1.991-.243 3.163-.809 5.287-3.565 6.27-5.136.2902544-.4814564.3743091-1.0595443.2331837-1.603724s-.4955297-1.0085593-.9831837-1.288276c-1.631-.9-4.837-2.295-8-1.486-1.8548604.5433152-3.5070957 1.6241582-4.748 3.106.095-2.268.221-4.514.375-6.455 1.2276135 1.0762505 2.9451657 1.3957503 4.4776781.8329397s2.6350476-1.9179791 2.8743219-3.5329397c.5172448.2053168 1.0684976.3114965 1.625.313.3968018-.0004169.7918358-.052864 1.175-.156 1.6441045-.4306688 2.9028156-1.7547754 3.2497304-3.4185679.3469148-1.6637924-.2777406-3.3805969-1.6127304-4.4324321.7549897-.5936003 1.2976778-1.4155253 1.547-2.343zm-1.911 29.843v1c.0487348.4829496-.2861236.920673-.765 1h-15.235c-.5522847 0-1 .4477153-1 1s.4477153 1 1 1h13.64l-4.375 14h-12.53l-4.375-14h2.346c.5522847 0 1-.4477153 1-1s-.4477153-1-1-1h-3.941c-.479151-.0788697-.814248-.5169051-.765-1v-1c-.049248-.4830949.285849-.9211303.765-1h24.47c.4788764.079327.8137348.5170504.765 1zm-6.552-11.819c2.48-.636 5.153.536 6.527 1.295.0162317.0249167.0261824.0533964.029.083-.825 1.318-2.582 3.624-5.072 4.261-2.536.649-5.28-.6-6.585-1.33.785-1.261 2.57-3.662 5.101-4.309zm4.763-21.595c.9757937.262786 1.6974157 1.0871947 1.82871 2.08918858.1312942 1.00199388-.3535635 1.98449121-1.22871 2.48981142-.2883822.1593913-.5931535.2871337-.909.381-.3128771.0967666-.6319378.1722721-.955.226-.1661268-1.24307271-.7534513-2.39160276-1.664-3.254.173386-.40250259.3177545-.81689366.432-1.24.1861362-.1652807.3869693-.31322771.6-.442.5733818-.33281441 1.2559477-.42281519 1.896-.25zm-6.711 9.414c-1.9329966 0-3.5-1.5670034-3.5-3.5 0-1.93299662 1.5670034-3.5 3.5-3.5s3.5 1.56700338 3.5 3.5c0 .9282577-.3687489 1.8184964-1.0251263 2.4748737-.6563773.6563774-1.546616 1.0251263-2.4748737 1.0251263zm0-13c1.3807119 0 2.5 1.11928813 2.5 2.5-.0053783.33558296-.0510386.66930568-.136.994-.0698545.31298528-.1614091.62072893-.274.921-1.158044-.4796355-2.4459717-.54567402-3.647-.187-.2624061-.34975397-.5487602-.68088223-.857-.991-.0519826-.24238207-.0807791-.48916135-.086-.737 0-1.38071187 1.1192881-2.5 2.5-2.5zm-8.222 4.749c.6906056-1.19290991 2.2164535-1.60177094 3.411-.914.2861476.1732805.5521185.37787348.793.61.2374277.21997327.4596078.45585172.665.706-.9917751.76429812-1.6930788 1.84412248-1.988 3.061-.4385776.0523071-.8729673.1351753-1.3.248-.2323313-.0801832-.457191-.180567-.672-.3-.5757154-.33012999-.9958224-.87642641-1.1670545-1.51760785-.171232-.64118144-.0794195-1.3241896.2550545-1.89739215zm1.512 10.665c-.9757937-.262786-1.6974157-1.0871947-1.82871-2.0891886-.1312942-1.0019939.3535635-1.9844912 1.22871-2.4898114.2870879-.1598944.5909216-.2876655.906-.381.3129382-.0965423.6319837-.1720441.955-.226.166768 1.2431602.7539708 2.391805 1.664 3.255-.1722986.4020294-.3159894.8157252-.43 1.238-.1860873.1656361-.3869225.3139194-.6.443-.5729624.3329722-1.2552881.4229888-1.895.25zm-5.722 15.406c-2.487-.636-4.246-2.943-5.067-4.249-.0045861-.0352939.0043445-.0710165.025-.1 1.372-.759 4.041-1.931 6.526-1.295 2.532.647 4.318 3.05 5.1 4.311-1.298.734-4.033 1.986-6.584 1.333zm12.432-11.82c-1.3807119 0-2.5-1.1192881-2.5-2.5.0049751-.337588.050638-.6733446.136-1 .0699957-.3126216.1615478-.620023.274-.92 1.157693.4796426 2.44531.5456833 3.646.187.2628641.3496761.5495451.680796.858.991.05219.2440369.0809871.4924951.086.742 0 .6630412-.2633921 1.298926-.732233 1.767767-.468841.4688409-1.1047258.732233-1.767767.732233zm8.224-4.749c-.6902635 1.1932728-2.216192 1.6026028-3.411.915-.2887292-.1734188-.5570765-.3787045-.8-.612-.2374758-.2177882-.4596683-.451675-.665-.7.9917751-.7642981 1.6930788-1.8441225 1.988-3.061.43866-.0517733.8730872-.1346486 1.3-.248.2321434.0806584.4569627.1810241.672.3.5754748.330345.9954374.8765601 1.1668184 1.5175964.171381.6410364.0800264 1.3239521-.2538184 1.8974036z"/></g></g></svg>