<svg id="Icons" height="512" viewBox="0 0 60 60" width="512" xmlns="http://www.w3.org/2000/svg"><path d="m18 54v5h-9a1 1 0 0 1 -1-1v-3a1 1 0 0 1 1-1z" fill="#ff9801"/><path d="m18 54h10v5h-10z" fill="#f57c00"/><path d="m28 54h10v5h-10z" fill="#ff9801"/><path d="m38 54h10v5h-10z" fill="#f57c00"/><path d="m58 54v4a1 1 0 0 1 -1 1h-9v-5z" fill="#ff9801"/><path d="m55 54v4a1 1 0 0 1 -1 1h3a1 1 0 0 0 1-1v-4z" fill="#f57c00"/><path d="m23 49v5h-10v-4a1 1 0 0 1 1-1z" fill="#f57c00"/><path d="m23 49h10v5h-10z" fill="#ff9801"/><path d="m33 49h10v5h-10z" fill="#f57c00"/><path d="m43 49h10v5h-10z" fill="#ff9801"/><path d="m53 49h5v5h-5z" fill="#f57c00"/><path d="m28 44v5h-10v-4a1 1 0 0 1 1-1z" fill="#ff9801"/><path d="m28 44h10v5h-10z" fill="#f57c00"/><path d="m38 44h10v5h-10z" fill="#ff9801"/><path d="m48 44h10v5h-10z" fill="#f57c00"/><path d="m33 39v5h-10v-4a1 1 0 0 1 1-1z" fill="#f57c00"/><path d="m33 39h10v5h-10z" fill="#ff9801"/><path d="m43 39h10v5h-10z" fill="#f57c00"/><path d="m53 39h5v5h-5z" fill="#ff9801"/><path d="m55 39h3v5h-3z" fill="#f57c00"/><path d="m48 34v5h-10v-4a1 1 0 0 1 1-1z" fill="#ff9801"/><path d="m58 35v4h-10v-5h9a1 1 0 0 1 1 1z" fill="#f57c00"/><path d="m44.71 16.59-2.12 2.12a1.008 1.008 0 0 1 -1.42 0l-4.35-4.35-1.3-1.31a1 1 0 0 1 0-1.41l2.12-2.13a1 1 0 0 1 1.41 0l5.66 5.66a1.008 1.008 0 0 1 0 1.42z" fill="#ff9801"/><path d="m44.71 15.17-5.66-5.66a1 1 0 0 0 -1.41 0l-.793.8 4.863 4.86a1.008 1.008 0 0 1 0 1.42l-1.33 1.33.79.79a1.008 1.008 0 0 0 1.42 0l2.12-2.12a1.008 1.008 0 0 0 0-1.42z" fill="#f57c00"/><circle cx="23" cy="6" fill="#ffe0b2" r="5"/><path d="m8.7 15.61a5.221 5.221 0 0 0 -1.35.71 1.861 1.861 0 0 0 -.87 2.13h-.01c-.62-1.9-3.47-.96-3.47-.96l.03-9.49 2.84 3.8z" fill="#9e9e9e"/><path d="m39.64 17.18-5.23 5.23a1.966 1.966 0 0 1 -1.41.59h-.14a2.053 2.053 0 0 1 -1.46-.8l-3.4-4.53v21.33h-4a1 1 0 0 0 -1 1v4h-4a1 1 0 0 0 -1 1v-24.82l-1.17 2.63a2.009 2.009 0 0 1 -1.61 1.18l-9 1a1.62 1.62 0 0 1 -.22.01 2 2 0 0 1 -.22-3.99l1.48-.16 6.38-.71 2.74-6.17a4.988 4.988 0 0 1 4.57-2.97h4.55a5 5 0 0 1 4 2l3.72 4.96 3.6-3.6z" fill="#02a9f4"/><path d="m37.91 15.91-6.4 6.4a2.045 2.045 0 0 0 1.35.69h.14a1.966 1.966 0 0 0 1.41-.59l5.23-5.23z" fill="#0377bc"/><path d="m25 22.668v16.332h3v-17.333a1.667 1.667 0 0 0 -3 1.001z" fill="#0377bc"/><path d="m57 33h-18a2 2 0 0 0 -2 2v3h-8v-17.332l1.6 2.137a3 3 0 0 0 4.513.312l4.526-4.526.824.823a2 2 0 0 0 2.828 0l2.121-2.121a2 2 0 0 0 0-2.829l-5.652-5.656a2 2 0 0 0 -2.829 0l-2.121 2.121a2 2 0 0 0 0 2.828l.6.6-2.081 2.081-3.029-4.038a5.994 5.994 0 0 0 -3.085-2.139 6 6 0 1 0 -8.309.11 5.976 5.976 0 0 0 -3.442 3.191l-2.507 5.645-5 .554-.53-1.631c-.3-.887 1.681-1.657 1.581-1.571a1 1 0 0 0 .492-1.545l-5.669-7.614a1 1 0 0 0 -1.801.6l-.03 9.483a1 1 0 0 0 1.31.955c.019-.007 1.92-.574 2.215.322.008.023.3.92.4 1.228l-.263.029a3 3 0 0 0 .338 5.983c.264 0-.638.091 9.332-1.016a3.014 3.014 0 0 0 1.668-.752v23.768h-3a2 2 0 0 0 -2 2v3h-3a2 2 0 0 0 -2 2v3a2 2 0 0 0 2 2h48a2 2 0 0 0 2-2v-23a2 2 0 0 0 -2-2zm-53-16.725.019-5.275 3.153 4.236a4.159 4.159 0 0 0 -1.345 1.247 4.351 4.351 0 0 0 -1.827-.208zm40 36.725v-3h8v3zm-10 0v-3h8v3zm-10 0v-3h8v3zm13-8v3h-8v-3zm5-5v3h-8v-3zm10 0v3h-8v-3zm5 0v3h-3v-3zm0 8h-8v-3h8zm-18 0v-3h8v3zm15 2h3v3h-3zm3-12h-8v-3h8zm-18-3h8v3h-8zm-7 8h-8v-3h8zm6.346-32.778 5.654 5.657-2.118 2.121-5.658-5.658zm-15.346-8.222a4 4 0 1 1 -4 4 4 4 0 0 1 4-4zm-7.083 20.4a1.016 1.016 0 0 1 -.808.595l-9 1-.109.005a1 1 0 0 1 -.109-2l7.859-.87a1 1 0 0 0 .8-.588l2.75-6.167a3.994 3.994 0 0 1 3.65-2.375h4.55a4.01 4.01 0 0 1 3.2 1.6l3.72 4.96a1 1 0 0 0 1.507.107l2.9-2.9 1.406 1.406-4.535 4.535a.993.993 0 0 1 -1.498-.108l-3.4-4.53a1 1 0 0 0 -1.8.6v20.33h-3v-4a1 1 0 0 0 -2 0v9h-3v-22.82a1 1 0 0 0 -1.914-.406zm3.083 22.6h8v3h-8c0-4.111 0-2.693 0-3zm-5 5h8v3h-8zm-5 5h8v3h-8zm10 0h8v3h-8zm10 0h8v3h-8zm10 0h8v3h-8zm10 3v-3h8v3z"/></svg>