<svg height="512" viewBox="0 0 60 60" width="512" xmlns="http://www.w3.org/2000/svg"><g id="Page-1" fill="none" fill-rule="evenodd"><g id="019---Potting-Plant" transform="translate(-1)"><path id="Shape" d="m55 54.56v-17.78c0-2.7614237-2.2385763-5-5-5h-11c-2.7614237 0-5 2.2385763-5 5v15.87z" fill="#9e9e9e" fill-rule="nonzero"/><path id="Shape" d="m50 31.78h-3c2.7614237 0 5 2.2385763 5 5v17.507l3 .273v-17.78c0-2.7614237-2.2385763-5-5-5z" fill="#707070" fill-rule="nonzero"/><path id="Shape" d="m29 59c1.2-1.358 2.68-2.609 3.434-4.226.306-.643.377-1.277.989-1.768.968-.778 2.435-.876 3.271-1.814.754-.84 1.284-1.858 1.956-2.743.6369046-.9478784 1.7233626-1.4933835 2.864-1.438.9351283.1311343 1.780902.6255203 2.354 1.376 1.049 1.224 2.883.884 4.269 1.527 1.294.608 1.6 2.019 2.364 3 1.03 1.322 3.027.92 4.453 1.617 1.1875754.7432814 2.1829031 1.7564257 2.905 2.957.377.512.764 1.012 1.141 1.512" fill="#a0522d" fill-rule="nonzero"/><path id="Shape" d="m57.859 57.49c-.7220969-1.2005743-1.7174246-2.2137186-2.905-2.957-1.426-.7-3.423-.3-4.453-1.617-.764-.983-1.07-2.394-2.364-3-1.386-.643-3.22-.3-4.269-1.527-.573098-.7504797-1.4188717-1.2448657-2.354-1.376-.615458-.0521612-1.2312401.096609-1.755.424.4189799.2549101.7935665.5764669 1.109.952 1.049 1.224 2.883.884 4.269 1.527 1.294.608 1.6 2.019 2.364 3 1.03 1.322 3.027.92 4.453 1.617 1.1875754.7432814 2.1829031 1.7564257 2.905 2.957.377.51.764 1.01 1.141 1.51h3c-.377-.5-.764-1-1.141-1.51z" fill="#783e22" fill-rule="nonzero"/><path id="Shape" d="m60 59h-58" stroke="#000" stroke-linecap="round" stroke-linejoin="round" stroke-width="2"/><path id="Rectangle-path" d="m42 15h5v13h-5z" fill="#f57c00" fill-rule="nonzero"/><path id="Shape" d="m47 28v10.5c0 1.3807119-1.1192881 2.5-2.5 2.5s-2.5-1.1192881-2.5-2.5v-10.5z" fill="#cfd8dc" fill-rule="nonzero"/><path id="Shape" d="m51 1h-13c-.5522847 0-1 .44771525-1 1v8c0 2.7614237 2.2385763 5 5 5h5c1.3260824 0 2.597852-.5267842 3.5355339-1.4644661s1.4644661-2.2094515 1.4644661-3.5355339v-8c0-.26521649-.1053568-.5195704-.2928932-.70710678s-.4418903-.29289322-.7071068-.29289322zm-3 9c0 .5522847-.4477153 1-1 1h-5c-.5522847 0-1-.4477153-1-1v-5h7z" fill="#ff9801" fill-rule="nonzero"/><path id="Shape" d="m48 5v5c0 .5522847-.4477153 1-1 1h-5c-.5522847 0-1-.4477153-1-1v-5z" stroke="#000" stroke-linecap="round" stroke-linejoin="round" stroke-width="2"/><path id="Shape" d="m48 5v5c0 .5522847-.4477153 1-1 1h-5c-.5522847 0-1-.4477153-1-1v-5z" stroke="#000" stroke-linecap="round" stroke-linejoin="round" stroke-width="2"/><g fill-rule="nonzero"><path id="Shape" d="m13 43h15.235c1.0360751-.0722194 1.8221766-.962986 1.765-2v-1c.0571766-1.037014-.7289249-1.9277806-1.765-2h-24.47c-1.03607511.0722194-1.82217656.962986-1.765 2v1c-.05717656 1.037014.72892489 1.9277806 1.765 2z" fill="#ff9801"/><path id="Shape" d="m4 43 5 16h14l5-16z" fill="#f57c00"/><path id="Shape" d="m24 5.5c-.0041186.40832572-.0578458.81463766-.16 1.21-.1649772.72852931-.427336 1.43151649-.78 2.09-.7505482-.52401356-1.6446306-.8034143-2.56-.8-.6642533-.00343417-1.3206632.1435743-1.92.43-.3968662-.63239663-.8741925-1.21056648-1.42-1.72-.1021542-.39536234-.1558814-.80167428-.16-1.21 0-1.93299662 1.5670034-3.5 3.5-3.5s3.5 1.56700338 3.5 3.5z" fill="#f5f5f5"/><path id="Shape" d="m24 19.5c0 1.9329966-1.5670034 3.5-3.5 3.5s-3.5-1.5670034-3.5-3.5c.0041186-.4083257.0578458-.8146377.16-1.21.1649772-.7285293.427336-1.4315165.78-2.09.7505482.5240136 1.6446306.8034143 2.56.8.6642533.0034342 1.3206632-.1435743 1.92-.43.3968662.6323966.8741925 1.2105665 1.42 1.72.1021542.3953623.1558814.8016743.16 1.21z" fill="#cfd8dc"/><path id="Shape" d="m28.31 12.03c-.3514795.1972354-.7237567.3548663-1.11.47-.7200104.2225361-1.4667352.3469902-2.22.37.01-.12.02-.25.02-.37.0019604-1.4775196-.7235901-2.86130155-1.94-3.7.352664-.65848351.6150228-1.36147069.78-2.09.2945517-.28227126.6199323-.53049976.97-.74 1.6680924-.91245463 3.7595389-.32630402 4.7104667 1.32015952.9509277 1.64646354.4134807 3.75095198-1.2104667 4.73984048z" fill="#cfd8dc"/><path id="Shape" d="m17.94 16.2c-.352664.6584835-.6150228 1.3614707-.78 2.09-.2945517.2822713-.6199323.5304998-.97.74-1.6680924.9124546-3.7595389.326304-4.7104667-1.3201595-.9509277-1.6464636-.4134807-3.750952 1.2104667-4.7398405.3514795-.1972354.7237567-.3548663 1.11-.47.7200104-.2225361 1.4667352-.3469902 2.22-.37-.01.12-.02.25-.02.37.0002838 1.4769676.7253205 2.8597695 1.94 3.7z" fill="#f5f5f5"/><path id="Shape" d="m18.58 8.43c-1.4548504.68531142-2.4315572 2.096958-2.56 3.7-.7532648.0230098-1.4999896.1474639-2.22.37-.3862433-.1151337-.7585205-.2727646-1.11-.47-1.1140259-.6093776-1.8106214-1.7743289-1.8202493-3.04409344-.0096279-1.26976457.6692222-2.44514507 1.7738795-3.07134562 1.1046572-.62620055 2.4618259-.60498445 3.5463698.05543906.3500677.20950024.6754483.45772874.97.74.5458075.50943352 1.0231338 1.08760337 1.42 1.72z" fill="#cfd8dc"/><path id="Shape" d="m29.59 17.75c-.9668412 1.6729757-3.1065036 2.2459397-4.78 1.28-.3500677-.2095002-.6754483-.4577287-.97-.74-.5458075-.5094335-1.0231338-1.0876034-1.42-1.72 1.4548504-.6853114 2.4315572-2.096958 2.56-3.7.7532648-.0230098 1.4999896-.1474639 2.22-.37.3862433.1151337.7585205.2727646 1.11.47.805043.4627896 1.3926081 1.2271638 1.6328038 2.1241446s.1132391 1.8526914-.3528038 2.6558554z" fill="#f5f5f5"/><path id="Shape" d="m25 12.5c0 .12-.01.25-.02.37-.1284428 1.603042-1.1051496 3.0146886-2.56 3.7-.5993368.2864257-1.2557467.4334342-1.92.43-.9153694.0034143-1.8094518-.2759864-2.56-.8-1.2146795-.8402305-1.9397162-2.2230324-1.94-3.7 0-.12.01-.25.02-.37.1284428-1.603042 1.1051496-3.01468858 2.56-3.7.5993368-.2864257 1.2557467-.43343417 1.92-.43 2.4852814 0 4.5 2.0147186 4.5 4.5z" fill="#ffdc00"/><path id="Shape" d="m23.06 8.8c-.7505482-.52401356-1.6446306-.8034143-2.56-.8-.5034642.00649809-1.0020622.0995201-1.474.275.3664308.12835426.7141499.30490408 1.034.525 1.2164099.83869845 1.9419604 2.2224804 1.94 3.7 0 .12-.01.25-.02.37-.1284428 1.603042-1.1051496 3.0146886-2.56 3.7-.1456365.0600048-.2945394.1117536-.446.155.4887514.1799049 1.0051934.2729727 1.526.275.6642533.0034342 1.3206632-.1435743 1.92-.43 1.4548504-.6853114 2.4315572-2.096958 2.56-3.7.01-.12.02-.25.02-.37.0019604-1.4775196-.7235901-2.86130155-1.94-3.7z" fill="#fec108"/></g><path id="Shape" d="m16 38c0-5.929.413-15.975 1.09-19.65" stroke="#000" stroke-linecap="round" stroke-linejoin="round" stroke-width="2"/><path id="Shape" d="m2.536 28.6c-.51153788.3081662-.68375612.9681882-.388 1.487.879 1.4 2.829 3.971 5.672 4.7 3.971 1.013 8.18-1.949 8.18-1.949s-2.23-4.611-6.2-5.626c-2.844-.727-5.809.588-7.264 1.388z" fill="#a4c400" fill-rule="nonzero"/><path id="Shape" d="m9.8 27.212c-1.09225681-.2589054-2.22765086-.2780106-3.328-.056.109.022.219.028.328.056 3.972 1.015 6.2 5.626 6.2 5.626-1.4793138.976983-3.13319121 1.6594494-4.871 2.01 3.877.794 7.871-2.01 7.871-2.01s-2.229-4.611-6.2-5.626z" fill="#90ac00" fill-rule="nonzero"/><path id="Shape" d="m29.464 28.6c.5115379.3081662.6837561.9681882.388 1.487-.879 1.4-2.829 3.971-5.672 4.7-3.971 1.013-8.18-1.949-8.18-1.949s2.23-4.611 6.2-5.626c2.844-.727 5.809.588 7.264 1.388z" fill="#a4c400" fill-rule="nonzero"/><path id="Shape" d="m29.464 28.6c-1.4-.774-4.194-2-6.935-1.447 1.3796465.272232 2.707662.7605773 3.935 1.447.5115379.3081662.6837561.9681882.388 1.487-.879 1.4-2.829 3.971-5.672 4.7-.1.026-.206.039-.309.06 1.0945296.2176437 2.2230801.1971804 3.309-.06 2.843-.727 4.793-3.3 5.672-4.7.2957561-.5188118.1235379-1.1788338-.388-1.487z" fill="#90ac00" fill-rule="nonzero"/><path id="Shape" d="m60 58h-.5l-.139-.183c-.232-.3-.465-.612-.7-.934l-.352-.472c-.6213854-.9275687-1.3997007-1.7397238-2.3-2.4v-17.231c-.0033074-3.3123376-2.6876624-5.9966926-6-6h-2.009v-14.87c2.8833034-.4898665 4.9945704-2.9853841 5-5.91v-8c0-1.1045695-.8954305-2-2-2h-13c-1.1045695 0-2 .8954305-2 2v8c.0054296 2.9246159 2.1166966 5.4201335 5 5.91v14.87h-2c-3.3123376.0033074-5.9966926 2.6876624-6 6v15.3c-.068.048-.138.09-.2.143-.5122561.4384945-.8869412 1.0156277-1.079 1.662-.056.15-.113.3-.189.464-.5976909 1.0844024-1.3646769 2.0664279-2.272 2.909-.235.245-.462.492-.69.739h-4.21l4.393-14.057c1.3475924-.329021 2.2832897-1.5532977 2.247-2.94v-1c.0603689-1.5902956-1.1750672-2.9307325-2.765-3h-11.235c.006-.753.017-1.562.035-2.409 1.670891.8713471 3.5173883 1.3530569 5.401 1.409.6715631.0028578 1.340818-.0787832 1.992-.243 3.163-.809 5.287-3.566 6.27-5.136.289975-.481525.373872-1.0595192.232768-1.6036162-.141104-.5440969-.4953248-1.0084714-.982768-1.2883838-1.63-.9-4.833-2.293-8-1.486-1.8551356.5432589-3.5074742 1.6245176-4.748 3.107.095-2.268.221-4.515.375-6.456 1.2276135 1.0762505 2.9451657 1.3957503 4.4776781.8329397s2.6350476-1.9179791 2.8743219-3.5329397c.5177043.2049369 1.0692117.3111004 1.626.313.3964356-.0009712.7910675-.0534095 1.174-.156 1.6441045-.4306688 2.9028156-1.7547754 3.2497304-3.4185679.3469148-1.6637924-.2777406-3.3805969-1.6127304-4.4324321 1.7441097-1.3789331 2.2130126-3.82837805 1.101496-5.75397033-1.1115167-1.92559228-3.4671065-2.74464496-5.533496-1.92402967-.3258249-2.19628545-2.2111776-3.82257491-4.4315-3.82257491s-4.1056751 1.62628946-4.4315 3.82257491c-2.0666017-.82185561-4.423256-.00319981-5.5352884 1.92285138-1.11203245 1.92605119-.64273211 4.37631112 1.1022884 5.75514862-1.324697 1.0559149-1.94214529 2.7676397-1.5965538 4.4260561.3455915 1.6584164 1.5953566 2.9810392 3.2315538 3.4199439.3828653.1028137.7775703.1549255 1.174.155.4653083-.0027512.9272878-.0786792 1.369-.225-.282 2.526-.5 6.045-.633 9.521-1.2939212-1.6957799-3.090352-2.9395974-5.133-3.554-3.163-.808-6.366.584-8 1.486-.48682885.2802503-.84042514.7445907-.98113089 1.2884146-.14070574.5438239-.05668615 1.1213904.23313089 1.6025854.984 1.571 3.108 4.328 6.271 5.137.6514927.1643732 1.32109808.246016 1.993.243 1.9116132-.0592067 3.7843625-.5548439 5.475-1.449-.018.865-.029 1.688-.035 2.449h-11.239c-1.58993283.0692675-2.82536891 1.4097044-2.765 3v1c-.03772385 1.387813.89828266 2.6137441 2.247 2.943l4.393 14.057h-5.64c-.55228475 0-1 .4477153-1 1s.44771525 1 1 1h58c.5522847 0 1-.4477153 1-1s-.4477153-1-1-1zm-37.552-29.819c2.49-.637 5.161.539 6.531 1.3l.025.08c-.825 1.317-2.583 3.624-5.072 4.26-2.535.649-5.281-.6-6.584-1.329.784-1.263 2.569-3.664 5.1-4.311zm-1.948-19.181c1.9329966 0 3.5 1.5670034 3.5 3.5s-1.5670034 3.5-3.5 3.5-3.5-1.5670034-3.5-3.5 1.5670034-3.5 3.5-3.5zm0 13c-1.3807119 0-2.5-1.1192881-2.5-2.5.0055209-.3356376.0515201-.6693829.137-.994.0707804-.3127438.1623164-.620425.274-.921 1.158044.4796355 2.4459717.545674 3.647.187.2621914.3499269.5485581.6810697.857.991.0515392.2424319.0799997.4892006.085.737 0 1.3807119-1.1192881 2.5-2.5 2.5zm8.224-4.749c-.6909763 1.193146-2.2174917 1.6016186-3.412.913-.2867694-.1723702-.5528389-.377039-.793-.61-.2377399-.2175191-.4599505-.451425-.665-.7.9910446-.764787 1.6918943-1.8444552 1.987-3.061.43866-.0517733.8730872-.1346486 1.3-.248.2321614.0806128.4569846.1809803.672.3.5754748.330345.9954374.8765601 1.1668184 1.5175964.171381.6410364.0800264 1.3239521-.2538184 1.8974036zm-1.513-10.665c.9757937.262786 1.6974157 1.0871947 1.82871 2.08918858.1312942 1.00199388-.3535635 1.98449122-1.22871 2.48981142-.2879407.1595803-.5924017.2873332-.908.381-.3128771.0967666-.6319378.1722721-.955.226-.1663775-1.2432822-.7536432-2.3920501-1.664-3.255.1735332-.40210306.317906-.81617237.432-1.239.1861362-.1652807.3869693-.31322771.6-.442.5731089-.33254291 1.255258-.42253621 1.895-.25zm-6.711-3.586c1.3807119 0 2.5 1.11928813 2.5 2.5-.0053783.33558296-.0510386.66930568-.136.994-.0697365.31312602-.1616346.62090105-.275.921-1.157693-.47964259-2.44531-.54568329-3.646-.187-.2627002-.34951687-.5490372-.68062544-.857-.991-.0522181-.24234311-.0810172-.48914504-.086-.737 0-1.38071187 1.1192881-2.5 2.5-2.5zm-8.223 4.749c.6906056-1.19290991 2.2164535-1.60177094 3.411-.914.2864219.1733283.5527191.37791433.794.61.2371937.21985352.4593599.45538311.665.705-.9914871.76499217-1.6926908 1.8450151-1.988 3.062-.4386672.0517265-.8730977.1346025-1.3.248-.2324829-.0797988-.4573759-.1801975-.672-.3-.5754748-.330345-.9954374-.8765601-1.1668184-1.51759643-.171381-.64103632-.0800264-1.32395203.2538184-1.89740357zm1.513 10.665c-.9763772-.2624305-1.6985738-1.0871116-1.829901-2.0895763-.1313273-1.0024647.3540707-1.9853459 1.229901-2.4904237.2876066-.1592903.591741-.2867115.907-.38.3125379-.096767.6312661-.1722729.954-.226.1663775 1.2432822.7536432 2.3920501 1.664 3.255-.1730806.4021736-.3171162.8162342-.431 1.239-.186508.1648208-.3872982.3127363-.6.442-.5728359.3322716-1.2545684.4222574-1.894.25zm-5.722 15.405c-2.489-.636-4.246-2.942-5.04-4.345 1.373-.758 4.039-1.928 6.524-1.293 2.532.647 4.317 3.05 5.1 4.311-1.298.729-4.034 1.98-6.584 1.327zm37.932-6.819h-3v-11h3zm-3 2h3v9.5c0 .8284271-.6715729 1.5-1.5 1.5s-1.5-.6715729-1.5-1.5zm-5-19v-8h13v8c0 2.209139-1.790861 4-4 4h-5c-2.209139 0-4-1.790861-4-4zm1 22.78h2v5.72c0 1.9329966 1.5670034 3.5 3.5 3.5s3.5-1.5670034 3.5-3.5v-5.72h2c2.209139 0 4 1.790861 4 4v16.42c-.238-.048-.476-.09-.711-.129-.7364868-.0087354-1.4456832-.280003-2-.765-.2114234-.2925313-.3996631-.6011375-.563-.923-.4385728-1.0098936-1.2015104-1.8446206-2.168-2.372-.6331755-.2646662-1.2991947-.4426077-1.98-.529-.7138158-.0216293-1.3998835-.2814127-1.949-.738-.7361894-.9600809-1.8279605-1.5832807-3.029-1.729-1.4856605-.1014702-2.9130752.595285-3.747 1.829-.285.375-.546.772-.808 1.172-.3278594.5308055-.6955849 1.0359267-1.1 1.511-.2696715.2620778-.5917166.4641654-.945.593v-14.34c0-2.209139 1.790861-4 4-4zm-5.662 22.42c.1-.207.177-.412.252-.615.0736867-.3049389.2329317-.58249.459-.8.3807568-.2629659.7964593-.471322 1.235-.619.8115529-.2580401 1.5499424-.7057358 2.154-1.306.4705697-.5494497.8987973-1.1337916 1.281-1.748.235-.36.47-.719.727-1.057.4366737-.669169 1.1881622-1.0651471 1.987-1.047.6696547.116108 1.2692108.4847903 1.675 1.03.8355588.840529 1.9518152 1.3432894 3.135 1.412.5036033.0610603.9974983.1853741 1.47.37.56945.3607848 1.0101479.8924925 1.259 1.519.2136071.4166108.4611076.8149528.74 1.191.8407033.9156002 2.011056 1.4592224 3.253 1.511.5313401.0583834 1.0521802.1892663 1.548.389.8888668.5390334 1.6356994 1.2831227 2.178 2.17l.3.4h-25.682c.8191572-.8210072 1.5038814-1.7659198 2.029-2.8zm-23.603 2.8-4.375-14h2.346c.55228475 0 1-.4477153 1-1s-.44771525-1-1-1h-3.941c-.47887638-.079327-.81373478-.5170504-.765-1v-1c-.04873478-.4829496.28612362-.920673.765-1h24.47c.4788764.079327.8137348.5170504.765 1v1c.0487348.4829496-.2861236.920673-.765 1h-15.235c-.5522847 0-1 .4477153-1 1s.4477153 1 1 1h13.64l-4.375 14z" fill="#000" fill-rule="nonzero"/><path id="Shape" d="m47 12c1.1045695 0 2-.8954305 2-2v-5c0-.55228475-.4477153-1-1-1h-7c-.5522847 0-1 .44771525-1 1v5c0 1.1045695.8954305 2 2 2zm-5-6h5v4h-5z" fill="#000" fill-rule="nonzero"/></g></g></svg>