<svg height="512" viewBox="0 0 60 60" width="512" xmlns="http://www.w3.org/2000/svg"><g id="Page-1" fill="none" fill-rule="evenodd"><g id="020---Landscape-Plan" fill-rule="nonzero"><path id="Shape" d="m54 59h-31v-4c0-1.6568542 1.3431458-3 3-3h8c4.9705627 0 9-4.0294373 9-9v-26h6v37c0 2.7614237 2.2385763 5 5 5z" fill="#ffdc00"/><path id="Shape" d="m49 54v-37h-3v37c0 2.7614237 2.2385763 5 5 5h3c-1.3260824 0-2.597852-.5267842-3.5355339-1.4644661s-1.4644661-2.2094515-1.4644661-3.5355339z" fill="#fec108"/><path id="Shape" d="m36 17v26c0 1.6568542-1.3431458 3-3 3h-8c-4.9705627 0-9 4.0294373-9 9v4h-12c-1.65685425 0-3-1.3431458-3-3v-36c0-1.6568542 1.34314575-3 3-3h2.19c-.12493026.9951446-.18838398 1.9970454-.19 3 0 7.73 3.13 11 7 11 2.56 0 4.8-1.43 6.02-4.64 1.1021892 1.6705553 2.9787672 2.6653678 4.98 2.64 3.87 0 7-3.27 7-11 0-.34-.01-.67-.02-1z" fill="#90ac00"/><path id="Shape" d="m59 17v37c0-2.7614237-2.2385763-5-5-5s-5 2.2385763-5 5v-37c0-2.7614237 2.2385763-5 5-5s5 2.2385763 5 5z" fill="#ffeb3a"/><path id="Shape" d="m54 12c-.5101742.0069635-1.0161845.0929853-1.5.255 2.0774589.6479506 3.4943474 2.5688466 3.5 4.745v32.423c1.8202802.7944339 2.9977847 2.5909133 3 4.577v-37c0-2.7614237-2.2385763-5-5-5z" fill="#fdd834"/><circle id="Oval" cx="54" cy="54" fill="#fec108" r="5"/><path id="Shape" d="m31 18c0 7.73-3.13 11-7 11-2.0012328.0253678-3.8778108-.9694447-4.98-2.64.7036772-2.0445086 1.0355814-4.1984988.98-6.36-.0194229-3.1871988-.6508621-6.3410003-1.86-9.29.01-.01.01-.01 0-.01 1.0665009-3.42975144 2.8072075-6.61198072 5.12-9.36.1861334-.21438091.4560902-.33750486.74-.33750486s.5538666.12312395.74.33750486c3.7123506 4.41168645 5.9009273 9.9041722 6.24 15.66.01.33.02.66.02 1z" fill="#60a917"/><path id="Shape" d="m30.98 17c-.3390727-5.7558278-2.5276494-11.24831355-6.24-15.66-.1861334-.21438091-.4560902-.33750486-.74-.33750486s-.5538666.12312395-.74.33750486c-.216.244-.478.568-.756.929 3.2519238 4.2552544 5.158756 9.3848281 5.476 14.731.01.33.02.66.02 1 0 6.7-2.354 10.046-5.5 10.819.4908745.1205851.9945315.1813597 1.5.181 3.87 0 7-3.27 7-11 0-.34-.01-.67-.02-1z" fill="#549414"/><path id="Shape" d="m20 20c.0555814 2.1615012-.2763228 4.3154914-.98 6.36-1.22 3.21-3.46 4.64-6.02 4.64-3.87 0-7-3.27-7-11 .00161602-1.0029546.06506974-2.0048554.19-3 .70313453-5.0322265 2.80644072-9.76553174 6.07-13.66.1861334-.21438091.4560902-.33750486.74-.33750486s.5538666.12312395.74.33750486c1.8537159 2.20018473 3.3395501 4.68558011 4.4 7.36.01 0 .01 0 0 .01 1.2091379 2.9489997 1.8405771 6.1028012 1.86 9.29z" fill="#a4c400"/><path id="Shape" d="m18.14 10.71c.01-.01.01-.01 0-.01-1.0604499-2.67441989-2.5462841-5.15981527-4.4-7.36-.1861334-.21438091-.4560902-.33750486-.74-.33750486s-.5538666.12312395-.74.33750486c-.218.247-.478.563-.761.932 1.4954191 1.97036208 2.7199887 4.13227721 3.641 6.428.01 0 .01 0 0 .01 1.2091379 2.9489997 1.8405771 6.1028012 1.86 9.29.0555814 2.1615012-.2763228 4.3154914-.98 6.36-.6483057 2.1664558-2.364603 3.8476264-4.544 4.451.4983106.1253475 1.010166.1888256 1.524.189 2.56 0 4.8-1.43 6.02-4.64.7036772-2.0445086 1.0355814-4.1984988.98-6.36-.0194229-3.1871988-.6508621-6.3410003-1.86-9.29z" fill="#90ac00"/><path id="Shape" d="m43 17v26c0 4.9705627-4.0294373 9-9 9h-8c-1.6568542 0-3 1.3431458-3 3v4h-7v-4c0-4.9705627 4.0294373-9 9-9h8c1.6568542 0 3-1.3431458 3-3v-26z" fill="#ffe0b2"/><g fill="#000"><path id="Shape" d="m9 54h-3v-3c0-.5522847-.44771525-1-1-1s-1 .4477153-1 1v4c0 .5522847.44771525 1 1 1h4c.55228475 0 1-.4477153 1-1s-.44771525-1-1-1z"/><path id="Shape" d="m54 11c-2.9246159.0054296-5.4201335 2.1166966-5.91 5h-16.179c-.5485811-5.6337675-2.782781-10.97131314-6.411-15.316-.386524-.41361274-.9268805-.64897699-1.4929852-.65030277-.5661047-.00132577-1.1075578.23150497-1.4960148.64330277-1.8768891 2.20973743-3.3880015 4.70563855-4.476 7.393-.9597932-1.93555719-2.1490079-3.74858922-3.542-5.4-.3881525-.41039512-.9281226-.64291785-1.493-.64291785s-1.1048475.23252273-1.493.64291785c-3.18197515 3.82975945-5.30695787 8.4251552-6.164 13.33h-1.343c-2.209139 0-4 1.790861-4 4v36c0 2.209139 1.790861 4 4 4h50c3.3123376-.0033074 5.9966926-2.6876624 6-6v-37c-.0033074-3.3123376-2.6876624-5.9966926-6-6zm0 2c2.209139 0 4 1.790861 4 4v32.54c-2.2714348-2.0532429-5.7285652-2.0532429-8 0v-32.54c0-2.209139 1.790861-4 4-4zm-10 5h4v36c.0002927 1.4782155.5494479 2.9036672 1.541 4h-25.541v-3c0-1.1045695.8954305-2 2-2h8c5.5203344-.0060624 9.9939376-4.4796656 10-10zm-20.008-16c3.7693185 4.49176153 5.8892715 10.1374419 6.008 16 0 5.774-1.81 9.3-5 9.9v-3.9c0-.5522847-.4477153-1-1-1s-1 .4477153-1 1v3.9c-1.127347-.211769-2.1405969-.8227721-2.854-1.721.6104293-2.0013706.8986959-4.0870845.854-6.179-.0176181-3.1880899-.627996-6.3450997-1.8-9.31 1.033252-3.17371338 2.6593474-6.12253834 4.792-8.69zm-10.992 2c1.7954084 2.14216049 3.232316 4.56075794 4.255 7.162l.008.018c1.132722 2.8033531 1.7221862 5.7964874 1.737 8.82 0 5.774-1.81 9.3-5 9.9v-3.486l2.707-2.707c.3789722-.3923789.3735524-1.0160848-.0121814-1.4018186s-1.0094397-.3911536-1.4018186-.0121814l-2.293 2.293-2.293-2.293c-.3923789-.3789722-1.01608478-.3735524-1.40181858.0121814-.38573379.3857338-.39115363 1.0094397-.01218142 1.4018186l2.707 2.707v3.486c-3.19-.6-5-4.125-5-9.9.13007815-5.8589665 2.24553299-11.50017936 6-16zm-11 52v-36c0-1.1045695.8954305-2 2-2h1.09c-.055.653-.09 1.318-.09 2 0 9.591 4.541 11.561 7 11.923v10.077c0 .5522847.4477153 1 1 1s1-.4477153 1-1v-10.077c2.2574299-.3362588 4.2187515-1.7298783 5.279-3.751 1.0235356.9641119 2.3261795 1.5792007 3.721 1.757v10.071c0 .5522847.4477153 1 1 1s1-.4477153 1-1v-10.077c2.459-.362 7-2.332 7-11.923h3v25c0 1.1045695-.8954305 2-2 2h-8c-5.5203344.0060624-9.9939376 4.4796656-10 10v3h-11c-1.1045695 0-2-.8954305-2-2zm15 2v-3c.0049599-4.4162219 3.5837781-7.9950401 8-8h8c2.209139 0 4-1.790861 4-4v-25h5v25c-.0049599 4.4162219-3.5837781 7.9950401-8 8h-8c-2.209139 0-4 1.790861-4 4v3zm37 0c-2.209139 0-4-1.790861-4-4s1.790861-4 4-4 4 1.790861 4 4-1.790861 4-4 4z"/></g></g></g></svg>