<svg height="512" viewBox="0 0 60 57" width="512" xmlns="http://www.w3.org/2000/svg"><g id="Page-1" fill="none" fill-rule="evenodd"><g id="022---Potting-Tree" fill-rule="nonzero" transform="translate(0 -1)"><path id="Shape" d="m26.75 38.91c-.1178411.4384812-.3825858.8232435-.75 1.09h-.01c-.3378074.2526376-.7481715.3894256-1.17.39-.1757693.0013412-.3508423-.0222263-.52-.07l-4.69-1.28-6.31-1.72c-.5684431-.157654-1.0390629-.5568275-1.2873635-1.0919249-.2483005-.5350973-.2492644-1.1522047-.0026365-1.6880751 0-.02.01-.03.02-.05l4.65-8.75c.9566995-1.7860501 3.0048539-2.6934103 4.9704997-2.2019989 1.9656459.4914115 3.3458479 2.2558608 3.3495003 4.2819989-.0005245.4450051-.0713994.8871293-.21 1.31-.0755903.2637829-.1795298.5186023-.31.76l-1.12 2.11-.27.5-.91 1.72-.64 1.2 2.12.58 1.69.46c1.0614364.2921572 1.6871785 1.3872058 1.4 2.45z" fill="#ff9801"/><path id="Shape" d="m25.35 36.46-1.69-.46-2.12-.58.64-1.2.91-1.72.27-.5 1.12-2.11c.1304702-.2413977.2344097-.4962171.31-.76.1386006-.4228707.2094755-.8649949.21-1.31.0009348-1.4406716-.7025208-2.7908007-1.8837849-3.6155132-1.181264-.8247125-2.6911085-1.019823-4.0432151-.5224868.1976462.0657859.3904498.1453132.577.238 1.4473742.7621132 2.3525034 2.2642426 2.35 3.9-.0005245.4450051-.0713994.8871293-.21 1.31-.0755903.2637829-.1795298.5186023-.31.76l-1.12 2.11-.27.5-.91 1.72-.64 1.2 2.12.58 1.69.46c1.0614364.2921572 1.6871785 1.3872058 1.4 2.45-.1143825.4248887-.367446.7993804-.719 1.064l1.269.346c.1691577.0477737.3442307.0713412.52.07.4218285-.0005744.8321926-.1373624 1.17-.39h.01c.6177986-.4533762.9222298-1.2198942.7838375-1.9736001s-.6952743-1.3620732-1.4338375-1.5663999z" fill="#f57c00"/><circle id="Oval" cx="25.5" cy="18.5" fill="#ffe0b2" r="5.5"/><path id="Shape" d="m32 34c-.0032948 1.1032019-.8967981 1.9967052-2 2h-6.34l-2.12-.58.64-1.2.91-1.72.27-.5h6.64c1.1011688.0081672 1.9918328.8988312 2 2z" fill="#f57c00"/><path id="Shape" d="m19 46v8c0 1.6568542-1.3431458 3-3 3h-10.34c-.70708703.0111213-1.38862042-.2641739-1.88960912-.7632792-.50098869-.4991052-.77884886-1.1795969-.77039088-1.8867208.07944957-1.3218097 1.17580687-2.3523856 2.5-2.35h8.5v-6.3c.6171112.1990561 1.2615793.3002814 1.91.3z" fill="#0377bc"/><path id="Shape" d="m30 44v10.34c.0111213.707087-.2641739 1.3886204-.7632792 1.8896091-.4991052.5009887-1.1795969.7788489-1.8867208.7703909-1.3218097-.0794496-2.3523856-1.1758069-2.35-2.5v-8.5h-9.09c-.6484207.0002814-1.2928888-.1009439-1.91-.3-1.6668598-.5659586-3.0022825-1.8334692-3.6543908-3.4685489-.65210823-1.6350796-.555492-3.473721.2643908-5.0314511l1.4-2.66c-.2466279.5358704-.245664 1.1529778.0026365 1.6880751.2483006.5350974.7189204.9342709 1.2873635 1.0919249l6.31 1.72 4.69 1.28c.1691577.0477737.3442307.0713412.52.07.4218285-.0005744.8321926-.1373624 1.17-.39h.01c2.209139 0 4 1.790861 4 4z" fill="#02a9f4"/><path id="Shape" d="m21.3 40.32c.1691577.0477737.3442307.0713412.52.07.4218285-.0005744.8321926-.1373624 1.17-.39h.01c.069 0 .134.017.2.02" fill="#0377bc"/><path id="Shape" d="m26 40h-.01c-.3378074.2526376-.7481715.3894256-1.17.39-.053 0-.109-.018-.164-.022 1.4259254.6463013 2.3424491 2.0664438 2.344 3.632v10.34c-.0059038.828798-.3877288 1.6101047-1.038 2.124.3977656.3150092.881753.5019092 1.388.536.7071239.008458 1.3876156-.2694022 1.8867208-.7703909.4991053-.5009887.7744005-1.1825221.7632792-1.8896091v-10.34c0-2.209139-1.790861-4-4-4z" fill="#0377bc"/><path id="Shape" d="m41 43h-4c-1.1032019-.0032948-1.9967052-.8967981-2-2v-1c.0032948-1.1032019.8967981-1.9967052 2-2h18c1.1032019.0032948 1.9967052.8967981 2 2v1c-.0032948 1.1032019-.8967981 1.9967052-2 2z" fill="#ff9801"/><path id="Shape" d="m55 38h-3c1.1032019.0032948 1.9967052.8967981 2 2v1c-.0032948 1.1032019-.8967981 1.9967052-2 2h3c1.1032019-.0032948 1.9967052-.8967981 2-2v-1c-.0032948-1.1032019-.8967981-1.9967052-2-2z" fill="#f57c00"/><path id="Shape" d="m45 43h10l-2 14h-14l-2-14h4z" fill="#f57c00"/><path id="Shape" d="m55.065 38c-.2710301-.3855943-.5022153-.7977071-.69-1.23-.287-.64-.345-1.27-.91-1.76-.891-.78-2.241-.88-3.008-1.82-.689-.84-1.178-1.86-1.791-2.74-.5713566-.9029793-1.5654403-1.4503468-2.634-1.4503468s-2.0626434.5473675-2.634 1.4503468c-.613.88-1.1 1.9-1.791 2.74-.766.94-2.117 1.04-3.007 1.82-.566.49-.623 1.12-.91 1.76-.1881765.4320985-.4193401.8441727-.69 1.23" fill="#a0522d"/><path id="Shape" d="m54.375 36.77c-.287-.64-.345-1.27-.91-1.76-.891-.78-2.241-.88-3.008-1.82-.689-.84-1.178-1.86-1.791-2.74-.5787329-.8950558-1.5681898-1.4397454-2.634-1.45-.5265152-.001199-1.0439926.136795-1.5.4.4513559.2630654.8386752.6230606 1.134 1.054.613.88 1.1 1.9 1.791 2.74.767.94 2.117 1.04 3.008 1.82.565.49.623 1.12.91 1.76.1877847.4322929.4189699.8444057.69 1.23h3c-.2712664-.3868609-.5024575-.8003244-.69-1.234z" fill="#783e22"/><circle id="Oval" cx="46" cy="11" fill="#60a917" r="9"/><path id="Shape" d="m46 2c-.5028835.00322243-1.0046224.04837892-1.5.135 4.3297277.72670886 7.5010833 4.4747098 7.5010833 8.865s-3.1713556 8.1382911-7.5010833 8.865c3.3570875.5877651 6.7581917-.7711782 8.7859125-3.5104942 2.0277208-2.7393161 2.334161-6.38901899.7916126-9.42810579-1.5425485-3.03908681-4.6694296-4.94613968-8.0775251-4.92640001z" fill="#549414"/><path id="Shape" d="m59 56h-4.847l1.735-12.15c1.2517697-.385535 2.1074463-1.5402123 2.112-2.85v-1c-.0026481-1.3973656-.9697127-2.6078552-2.332-2.919-.1442038-.2308408-.2715355-.4718018-.381-.721-.071-.157-.124-.315-.177-.468-.1694619-.6264142-.5110377-1.1928203-.986-1.635-.4917008-.3959687-1.0428138-.7118547-1.633-.936-.4730664-.156223-.9043157-.4181872-1.261-.766-.3708155-.4791195-.7070011-.9840662-1.006-1.511-.239-.4-.478-.793-.739-1.168-.5833105-.8724864-1.4682313-1.498875-2.485-1.759v-7.168c5.3015493-.5328257 9.2542081-5.1289259 8.9874607-10.4505021-.2667473-5.32157626-4.6592032-9.49937227-9.9874607-9.49937227s-9.7207134 4.17779601-9.9874607 9.49937227c-.2667474 5.3215762 3.6859114 9.9176764 8.9874607 10.4505021v7.184c-.9906686.2719865-1.850379.8913898-2.422 1.745-.26.373-.5.769-.739 1.168-.2988492.5275729-.6353904 1.0328859-1.007 1.512-.3564321.3464437-.7869412.6073479-1.259.763-.5885476.2236914-1.1382611.5385365-1.629.933-.4766635.4425216-.8193601 1.0101021-.989 1.638-.054.153-.107.311-.187.489-.1029332.2344235-.2222276.4613167-.357.679-1.4013716.280597-2.4102322 1.5108126-2.411 2.94v1c.0045537 1.3097877.8602303 2.464465 2.112 2.85l1.735 12.15h-7.254c.2633614-.5139859.4027466-1.0824858.407-1.66v-10.34c-.0067365-2.111852-1.3419178-3.9908774-3.334-4.692.015-.045.036-.087.049-.134.1986461-.72908.1121127-1.5064506-.242-2.174h2.527c1.6568542 0 3-1.3431458 3-3-.0082058-1.6534434-1.3465566-2.9917942-3-3h-4.974l.344-.647c.1573847-.2898806.2827881-.5960125.374-.913.1701958-.5231292.2565962-1.0698815.256-1.62.0005879-1.0007912-.2763375-1.9821455-.8-2.835.1 0 .2.015.3.015 3.0330265.0120193 5.6745369-2.0671899 6.3752944-5.0181784s-.723978-5.9957901-3.4386039-7.3486391c-2.7146259-1.3528489-6.0034881-.657095-7.9376801 1.6792045s-2.0038046 5.6972283-.1680104 8.111613c-1.9147374.0575338-3.6483818 1.1468486-4.531 2.847l-4.636 8.729c-.012.02-.018.047-.029.069l-.006.008-1.4 2.659c-.89615941 1.7036239-1.05343162 3.7005029-.43501853 5.523413s1.95824963 3.3119025 3.70601853 4.118587v4.622h-7.5c-.92919149-.0036775-1.82119658.3647202-2.477 1.023-.60595656.6092533-.9680522 1.4191666-1.018 2.277-.02659446.5904791.10493419 1.1773524.381 1.7h-1.386c-.55228475 0-1 .4477153-1 1s.44771525 1 1 1h26.354.13.036 31.48c.5522847 0 1-.4477153 1-1s-.4477153-1-1-1zm-21-45c-.0033528-4.28912486 3.376431-7.81773463 7.661721-7.99909849s7.9511324 3.04905793 8.3101948 7.32312829c.3590623 4.2740704-2.7164305 8.0708281-6.9719158 8.6069702v-3.517l3.707-3.707c.3789722-.3923789.3735524-1.0160848-.0121814-1.4018186-.3857338-.38573377-1.0094397-.39115361-1.4018186-.0121814l-2.293 2.293v-4.586c0-.55228475-.4477153-1-1-1s-1 .44771525-1 1v4.586l-2.293-2.293c-.3923789-.37897221-1.0160848-.37355237-1.4018186.0121814-.3857338.3857338-.3911536 1.0094397-.0121814 1.4018186l3.707 3.707v3.517c-3.995865-.507003-6.9933065-3.9031042-7-7.931zm1.258 24.762c.3397455-.2552688.7146264-.4600555 1.113-.608.7692321-.2695367 1.4592996-.7262597 2.008-1.329.4342379-.5528929.8269764-1.1371541 1.175-1.748.216-.36.43-.719.663-1.053.3842701-.6348605 1.0724007-1.0227146 1.8145-1.0227146s1.4302299.3878541 1.8145 1.0227146c.234.336.448.7.664 1.054.3473301.6104961.7394027 1.1944269 1.173 1.747.548838.6042052 1.2396782 1.0620158 2.01 1.332.3999867.1484353.7762582.3542562 1.117.611.2043495.2191624.3459663.4892705.41.782.054.154.113.3.173.453h-14.722c.061-.152.121-.3.173-.453.0642141-.2952673.2072908-.5675969.414-.788zm-9.258-2.762c.2694422-.0008733.5272084.1099083.712.306.1865985.1823963.2906276.4330776.288.694 0 .5522847-.4477153 1-1 1h-6.2l-.788-.215.951-1.785zm-4.5-19c2.4852814 0 4.5 2.0147186 4.5 4.5s-2.0147186 4.5-4.5 4.5-4.5-2.0147186-4.5-4.5 2.0147186-4.5 4.5-4.5zm-7.935 12.212c.8241118-1.5765581 2.7209777-2.2557094 4.3584699-1.5605008 1.6374921.6952086 2.4663698 2.5315933 1.9045301 4.2195008-.0558545.1905777-.131955.3746268-.227.549l-2.566 4.825-2.891-.789 2.364-4.729c.1630317-.319984.1419628-.7028178-.055198-1.0029789-.1971608-.3001612-.5401342-.471552-.8985495-.4490237-.3584154.0225284-.6772285.2355161-.8352525.5580026l-2.91 5.82c-.1339973.267924-.1408243.5818084-.018603.8553052.1222213.2734969.360616.4777956.649603.5566948l8.65 2.359c.5332309.1444225.8484224.6937691.704 1.227-.1444225.5332309-.6937691.8484224-1.227.704l-4.69-1.28-6.308-1.72c-.2951095-.0804652-.5371613-.2915698-.657-.573-.1145715-.265367-.1102044-.5670604.012-.829 0-.006 0-.012.005-.018s.01-.015.014-.024zm-6.291 15.64c-.5539257-1.3589121-.471398-2.8942935.225-4.186l.126-.24c.3822875.4132339.872898.7108571 1.416.859l6.31 1.72 4.669 1.274c.2599882.0750579.5293979.1124385.8.111.4993386-.0004343.9906175-.1259185 1.429-.365 1.5509118.1258055 2.7467363 1.4189999 2.751 2.975v10.34c.0003526.4762702-.1948715.9317931-.54 1.26-.2662749.2625155-.6260934.408242-1 .405h-.048c-.7958091-.0467578-1.4160297-.7078286-1.412-1.505v-8.5c0-.5522847-.4477153-1-1-1h-9.086c-.5410795.0007931-1.07894-.0832265-1.594-.249-1.3920784-.4716578-2.5061178-1.5319336-3.046-2.899zm8.726 5.148h4v7.5c.0027464.5198017.1220048 1.0323736.349 1.5h-4.902c.3593228-.6054512.5502476-1.2959571.553-2zm-14.336 9c-.47500403-.0016799-.92857247-.1979251-1.255-.543-.27432634-.2763922-.42232564-.6538085-.409-1.043.02294147-.3681451.1789694-.7153872.439-.977.28133418-.2811854.66324134-.4384836 1.061-.437h8.5c.5522847 0 1-.4477153 1-1v-5.071c.3018843.0426832.6061479.0663963.911.071h2.089v7c0 1.1045695-.8954305 2-2 2zm34.2 0-1.711-12h2.847c.5522847 0 1-.4477153 1-1s-.4477153-1-1-1h-4c-.5522847 0-1-.4477153-1-1v-1c0-.5522847.4477153-1 1-1h18c.5522847 0 1 .4477153 1 1v1c0 .5522847-.4477153 1-1 1h-10c-.5522847 0-1 .4477153-1 1s.4477153 1 1 1h8.847l-1.714 12z" fill="#000"/></g></g></svg>